<svg id="Layer_1" data-name="Layer 1" xmlns="http://www.w3.org/2000/svg" viewBox="0 0 1577.36 1500.16"><defs><style>.cls-1{fill:#1064ea;}.cls-2{fill:#fff;}</style></defs><polygon class="cls-1" points="788.68 0 0 573.01 301.25 1500.16 1276.11 1500.16 1577.36 573.01 788.68 0"/><circle class="cls-2" cx="1032.42" cy="691.2" r="74.61"/><path class="cls-2" d="M3169.54,1740.7h-13.71a6.56,6.56,0,0,1-6.09-6.09v-28.93c0-3,1.52-4.57,3.05-6.09,7.61-6.1,13.7-16.75,13.7-27.41V1547.31c0-9.13-3-18.27-10.66-24.36L3026.4,1401.13c-24.36-33.5-67-48.73-108.11-35-19.8,6.09-36.55,19.79-48.73,35L2764.49,1553.4c-1.52,1.53-3,1.53-4.57,1.53H2677.7c-16.75,0-32,13.7-35,28.93-1.52,19.79,13.71,36.54,32,36.54h102c9.14,0,18.28-4.56,24.37-10.66l67-91.36c3-4.57,10.65-3,12.18,3,7.61,35,1.52,92.88,1.52,162.93,0,4.57,0,7.61,1.52,10.66v300c0,19.8,16.75,35,36.55,32,16.75-1.52,28.93-18.27,28.93-35V1783.34c0-4.57,4.57-7.62,7.61-6.1,7.62,1.53,15.23,3,24.37,3h1.52c7.61,0,15.23-1.52,22.84-3,4.57-1.52,7.61,1.53,7.61,6.1v207.09c0,19.79,16.75,35,36.55,32,16.75-1.52,28.93-18.27,28.93-35V1698.06c0-4.57,1.52-10.66,1.52-15.22A916.62,916.62,0,0,0,3069,1544.27c-1.53-6.09,6.09-10.66,10.65-6.09L3101,1558V1673.7c0,12.18,6.09,21.32,15.23,27.41,1.52,1.52,3.05,3,3.05,6.09v27.41a6.56,6.56,0,0,1-6.1,6.09H3101a15.26,15.26,0,0,0-15.22,15.23v164.45a15.26,15.26,0,0,0,15.22,15.23h68.53a15.26,15.26,0,0,0,15.22-15.23V1755.93C3184.76,1746.79,3178.67,1740.7,3169.54,1740.7Z" transform="translate(-1853.89 -575.93)"/><circle class="cls-2" cx="548.2" cy="691.2" r="74.61"/><path class="cls-2" d="M2118.86,1740.7h13.7a6.55,6.55,0,0,0,6.09-6.09v-28.93c0-3-1.52-4.57-3-6.09-7.62-6.1-13.71-16.75-13.71-27.41V1547.31c0-9.13,3-18.27,10.66-24.36L2262,1401.13c24.37-33.5,67-48.73,108.12-35,19.79,6.09,36.54,19.79,48.72,35L2523.9,1553.4c1.52,1.53,33.5,1.53,35,1.53h51.78c16.75,0,32,13.7,35,28.93,1.52,19.79-13.71,36.54-32,36.54h-102c-9.14,0-18.27-4.56-24.36-10.66l-67-91.36c-3.05-4.57-10.66-3-12.19,3-7.61,35-1.52,92.88-1.52,162.93,0,4.57,0,7.61-1.52,10.66v300c0,19.8-16.75,35-36.55,32-16.75-1.52-28.93-18.27-28.93-35V1783.34c0-4.57-4.57-7.62-7.61-6.1-7.62,1.53-15.23,3-24.37,3h-1.52c-7.61,0-15.23-1.52-22.84-3-4.57-1.52-7.61,1.53-7.61,6.1v207.09c0,19.79-16.75,35-36.55,32-16.75-1.52-28.93-18.27-28.93-35V1695c0-4.57-1.52-10.66-1.52-15.23a915.33,915.33,0,0,1,10.66-138.57c1.52-6.09-6.1-10.66-10.66-6.09l-21.32,19.8V1673.7c0,12.18-6.09,21.32-15.23,27.41-1.52,1.52-3,3-3,6.09v27.41a6.55,6.55,0,0,0,6.09,6.09h12.18a15.26,15.26,0,0,1,15.23,15.23v164.45a15.27,15.27,0,0,1-15.23,15.23h-68.52a15.26,15.26,0,0,1-15.23-15.23V1755.93C2103.63,1746.79,2109.72,1740.7,2118.86,1740.7ZM2798,947.36H2490.4c-10.66,0-18.27,7.61-18.27,18.27v207.09c0,10.66,7.61,18.28,18.27,18.28h28.93c4.57,0,9.14,4.56,9.14,9.13v44.16c0,4.57,6.09,6.09,7.61,1.52l42.64-50.25a8.37,8.37,0,0,1,7.61-4.56H2798c10.66,0,18.27-7.62,18.27-18.28V965.63C2816.26,955,2808.65,947.36,2798,947.36Zm-53.29,140.09h-201a25.89,25.89,0,1,1,0-51.77h199.47a25.66,25.66,0,0,1,25.89,25.88c1.52,15.23-10.66,25.89-24.36,25.89Z" transform="translate(-1853.89 -575.93)"/></svg>